<svg width="359" height="353" viewBox="0 0 359 353" fill="none" xmlns="http://www.w3.org/2000/svg">
<g filter="url(#filter0_d)">
<ellipse cx="179.482" cy="172.5" rx="174.665" ry="172.5" fill="#EE0979"/>
<ellipse cx="179.482" cy="172.5" rx="174.665" ry="172.5" fill="url(#paint0_linear)"/>
<path d="M262.929 85.1429H248.643V74.4286C248.643 64.6071 240.607 56.5714 230.786 56.5714H223.643C213.821 56.5714 205.786 64.6071 205.786 74.4286V85.1429H162.929V74.4286C162.929 64.6071 154.893 56.5714 145.071 56.5714H137.929C128.107 56.5714 120.071 64.6071 120.071 74.4286V85.1429H105.786C97.9732 85.1429 91.5 91.6161 91.5 99.4286V242.286C91.5 250.098 97.9732 256.571 105.786 256.571H262.929C270.741 256.571 277.214 250.098 277.214 242.286V99.4286C277.214 91.6161 270.741 85.1429 262.929 85.1429ZM220.071 74.4286C220.071 72.4196 221.634 70.8571 223.643 70.8571H230.786C232.795 70.8571 234.357 72.4196 234.357 74.4286V106.571C234.357 108.58 232.795 110.143 230.786 110.143H223.643C221.634 110.143 220.071 108.58 220.071 106.571V74.4286ZM134.357 74.4286C134.357 72.4196 135.92 70.8571 137.929 70.8571H145.071C147.08 70.8571 148.643 72.4196 148.643 74.4286V106.571C148.643 108.58 147.08 110.143 145.071 110.143H137.929C135.92 110.143 134.357 108.58 134.357 106.571V74.4286ZM262.929 242.286H105.786V128H262.929V242.286ZM191.5 178V153C191.5 150.991 189.938 149.429 187.929 149.429H180.786C178.777 149.429 177.214 150.991 177.214 153V178H152.214C150.205 178 148.643 179.562 148.643 181.571V188.714C148.643 190.723 150.205 192.286 152.214 192.286H177.214V217.286C177.214 219.295 178.777 220.857 180.786 220.857H187.929C189.938 220.857 191.5 219.295 191.5 217.286V192.286H216.5C218.509 192.286 220.071 190.723 220.071 188.714V181.571C220.071 179.562 218.509 178 216.5 178H191.5Z" fill="white"/>
</g>
<defs>
<filter id="filter0_d" x="0.817078" y="0" width="357.329" height="353" filterUnits="userSpaceOnUse" color-interpolation-filters="sRGB">
<feFlood flood-opacity="0" result="BackgroundImageFix"/>
<feColorMatrix in="SourceAlpha" type="matrix" values="0 0 0 0 0 0 0 0 0 0 0 0 0 0 0 0 0 0 127 0"/>
<feOffset dy="4"/>
<feGaussianBlur stdDeviation="2"/>
<feColorMatrix type="matrix" values="0 0 0 0 0 0 0 0 0 0 0 0 0 0 0 0 0 0 0.25 0"/>
<feBlend mode="normal" in2="BackgroundImageFix" result="effect1_dropShadow"/>
<feBlend mode="normal" in="SourceGraphic" in2="effect1_dropShadow" result="shape"/>
</filter>
<linearGradient id="paint0_linear" x1="455.732" y1="187.856" x2="4.81712" y2="186.806" gradientUnits="userSpaceOnUse">
<stop stop-color="#FF6E00"/>
<stop offset="0.84375" stop-color="white" stop-opacity="0"/>
</linearGradient>
</defs>
</svg>
