<svg width="492" height="337" viewBox="0 0 492 337" fill="none" xmlns="http://www.w3.org/2000/svg">
<circle cx="245.5" cy="168.5" r="168.5" fill="#EE0979"/>
<circle cx="245.5" cy="168.5" r="168.5" fill="url(#paint0_linear)"/>
<path d="M280.286 134.429H273.429V129.286C273.429 124.571 269.571 120.714 264.857 120.714H261.429C256.714 120.714 252.857 124.571 252.857 129.286V134.429H232.286V129.286C232.286 124.571 228.429 120.714 223.714 120.714H220.286C215.571 120.714 211.714 124.571 211.714 129.286V134.429H204.857C201.107 134.429 198 137.536 198 141.286V209.857C198 213.607 201.107 216.714 204.857 216.714H280.286C284.036 216.714 287.143 213.607 287.143 209.857V141.286C287.143 137.536 284.036 134.429 280.286 134.429ZM259.714 129.286C259.714 128.321 260.464 127.571 261.429 127.571H264.857C265.821 127.571 266.571 128.321 266.571 129.286V144.714C266.571 145.679 265.821 146.429 264.857 146.429H261.429C260.464 146.429 259.714 145.679 259.714 144.714V129.286ZM218.571 129.286C218.571 128.321 219.321 127.571 220.286 127.571H223.714C224.679 127.571 225.429 128.321 225.429 129.286V144.714C225.429 145.679 224.679 146.429 223.714 146.429H220.286C219.321 146.429 218.571 145.679 218.571 144.714V129.286ZM280.286 209.857H204.857V155H280.286V209.857ZM246 179V167C246 166.036 245.25 165.286 244.286 165.286H240.857C239.893 165.286 239.143 166.036 239.143 167V179H227.143C226.179 179 225.429 179.75 225.429 180.714V184.143C225.429 185.107 226.179 185.857 227.143 185.857H239.143V197.857C239.143 198.821 239.893 199.571 240.857 199.571H244.286C245.25 199.571 246 198.821 246 197.857V185.857H258C258.964 185.857 259.714 185.107 259.714 184.143V180.714C259.714 179.75 258.964 179 258 179H246Z" fill="white"/>
<defs>
<linearGradient id="paint0_linear" x1="512" y1="183.5" x2="77" y2="182.5" gradientUnits="userSpaceOnUse">
<stop stop-color="#FF6E00"/>
<stop offset="0.84375" stop-color="white" stop-opacity="0"/>
</linearGradient>
</defs>
</svg>
